# xmcd CD database file
# Copyright (C) 1997 Ti Kan
#
# Track frame offsets:
#  150
#  19387
#  37925
#  49414
#  67475
#  80652
#
# Disc length: 1330 seconds
#
# Revision: 1
# Processed by: cddbd v1.4b41PL1 Copyright (c) Steve Scherf et al.
# Submitted via: CDWizzard Release:4.32
#
DISCID=55053006
DTITLE=Vince Gill - Country Tour 97
DYEAR=1900
DGENRE=
TTITLE0=South Side of Dixie
TTITLE1=Pocket Full of Gold
TTITLE2=Pretty Words
TTITLE3=Look At Us
TTITLE4=Liza Jane
TTITLE5=Which Bridge to Cross (Which Bridge to Burn)
EXTD=
EXTT0=
EXTT1=
EXTT2=
EXTT3=
EXTT4=
EXTT5=
PLAYORDER=
